<?xml version="1.0" standalone="no"?>
<!DOCTYPE svg PUBLIC "-//W3C//DTD SVG 20010904//EN"
 "http://www.w3.org/TR/2001/REC-SVG-20010904/DTD/svg10.dtd">
<svg version="1.0" xmlns="http://www.w3.org/2000/svg"
 width="1026.000000pt" height="1026.000000pt" viewBox="0 0 1026.000000 1026.000000"
 preserveAspectRatio="xMidYMid meet">
<metadata>
Created by potrace 1.14, written by Peter Selinger 2001-2017
</metadata>
<g transform="translate(0.000000,1026.000000) scale(0.100000,-0.100000)"
fill="#000000" stroke="none">
<path d="M4732 8302 c-215 -218 -590 -596 -832 -840 l-441 -443 835 -835 834
-835 214 212 c117 116 495 492 840 835 l627 623 -238 238 c-130 131 -245 244
-255 252 -15 13 -24 7 -84 -57 -37 -39 -108 -113 -159 -165 l-92 -94 79 -84
c44 -46 79 -86 80 -89 0 -3 -227 -232 -505 -510 l-506 -505 -370 375 c-203
206 -429 434 -501 507 l-132 132 266 268 c147 147 372 375 501 507 l235 239
88 -87 88 -87 163 163 c89 90 163 166 163 169 0 6 -499 510 -503 509 -1 -1
-179 -180 -395 -398z"/>
<path d="M4957 7192 l-167 -167 167 -167 168 -167 173 167 173 168 -168 161
c-92 89 -170 164 -173 167 -3 3 -81 -70 -173 -162z"/>
<path d="M6253 5806 l-883 -882 0 -1009 0 -1010 1220 1220 c671 671 1224 1221
1228 1222 4 2 81 -71 171 -161 l164 -164 -1391 -1392 -1392 -1391 0 -339 0
-339 1118 1120 c614 616 1390 1395 1725 1731 l607 610 -501 500 -501 501 -989
-989 -989 -989 0 340 0 340 815 815 815 815 -143 145 c-79 80 -155 155 -168
167 l-24 21 -882 -882z"/>
<path d="M2973 6534 c-81 -81 -307 -304 -502 -496 l-353 -351 1175 -1176 1175
-1176 0 -327 c0 -181 -1 -328 -4 -328 -2 0 -605 601 -1340 1335 -735 734
-1338 1335 -1341 1335 -4 0 -80 -74 -169 -164 l-164 -164 603 -605 c1160
-1167 2838 -2847 2842 -2847 3 0 5 451 5 1003 l0 1002 -716 720 c-393 396
-866 871 -1051 1057 l-336 336 167 168 168 168 505 -510 c277 -280 675 -680
884 -890 l379 -380 0 340 0 339 -879 879 c-483 483 -883 878 -889 878 -6 0
-77 -66 -159 -146z"/>
</g>
</svg>
