<svg xmlns="http://www.w3.org/2000/svg" viewBox="0 0 597 578"><polygon points="318 469 318 306 461 163 488 190 356 322 356 377 516 217 570 271 597 298 318 578 318 523 543 298 516 271 318 469" /><polygon points="54 244 136 163 279 306 279 361 136 217 109 244 279 415 279 578 0 298 27 271 244 488 244 434 54 244" /><polygon points="326 136 298 163 271 136 298 109 326 136" /><polygon points="407 109 434 136 298 271 163 136 298 0 339 41 312 68 298 54 217 136 298 218 380 136 367 122 393 95 407 109" /></svg>
